 <svg version="1.0" xmlns="http://www.w3.org/2000/svg" width="700.000000pt" height="700.000000pt" viewBox="0 0 700.000000 700.000000" preserveAspectRatio="xMidYMid meet">
<metadata>
Created by potrace 1.12, written by Peter Selinger 2001-2015
</metadata>
<g transform="translate(0.000000,700.000000) scale(0.100000,-0.100000)" fill="#000000" stroke="none">
<path d="M679 6996 c-2 -2 -42 -10 -89 -16 -218 -30 -422 -182 -517 -387 -34
-74 -44 -112 -63 -248 -18 -123 -9 -5662 9 -5765 27 -160 119 -315 248 -419
79 -63 190 -118 268 -131 30 -6 81 -14 112 -20 80 -14 5629 -14 5709 1 32 5
83 14 111 19 184 32 391 208 471 401 59 144 56 -18 60 3029 3 2804 3 2850 -29
3013 -35 183 -211 386 -402 466 -142 58 18 55 -3053 58 -1557 2 -2832 1 -2835
-1z m3341 -1187 c232 -27 372 -59 535 -121 130 -49 270 -123 339 -178 117 -94
199 -180 258 -270 41 -63 88 -151 88 -163 0 -5 7 -23 15 -40 36 -80 58 -202
62 -357 6 -190 -14 -331 -63 -437 -7 -17 -14 -34 -14 -37 0 -4 -20 -42 -45
-84 -83 -144 -227 -289 -382 -384 l-83 -51 78 -50 c389 -251 589 -546 622
-915 13 -138 13 -381 1 -453 -15 -87 -71 -256 -97 -289 -6 -8 -14 -23 -17 -33
-8 -22 -79 -128 -126 -187 -142 -180 -388 -348 -646 -443 -173 -64 -250 -84
-490 -123 -203 -34 -619 -39 -815 -11 -289 43 -488 91 -790 193 -313 106 -539
225 -703 369 -110 97 -163 172 -178 249 -19 104 14 162 98 173 39 5 234 -20
288 -37 17 -6 56 -16 88 -23 l57 -14 0 96 c0 53 5 141 10 196 30 293 55 478
79 584 6 25 18 80 27 121 89 406 154 638 271 955 59 161 166 397 225 495 155
256 288 381 435 405 85 14 108 -16 124 -157 11 -98 -3 -453 -21 -530 -5 -24
-17 -88 -26 -143 -18 -113 -46 -262 -70 -380 -8 -44 -24 -120 -33 -170 -10
-49 -20 -97 -23 -105 -3 -8 -13 -53 -23 -100 -9 -47 -23 -112 -30 -145 -20
-83 -53 -240 -65 -300 -9 -45 -21 -174 -35 -370 -13 -176 -39 -605 -39 -649
l-1 -48 45 -14 c214 -63 558 -100 689 -75 31 5 88 15 126 22 39 6 75 15 80 19
6 4 23 10 39 14 35 9 164 72 226 111 141 89 258 256 298 428 21 91 23 408 4
542 -27 183 -87 332 -184 460 -60 79 -60 79 -193 55 -83 -15 -241 -8 -365 16
-213 40 -310 126 -310 274 0 129 73 205 244 254 110 32 435 39 546 11 21 -5
31 2 64 42 21 26 50 73 63 103 14 30 29 64 33 75 5 11 19 58 30 105 30 120 31
374 2 472 -72 240 -229 373 -532 448 -19 5 -108 16 -197 25 -151 16 -174 16
-340 0 -356 -33 -503 -78 -933 -288 -186 -90 -289 -127 -355 -127 -36 0 -94
24 -107 44 -62 93 220 430 527 628 446 289 975 393 1615 317z"></path>
</g>
</svg>